999
DXF file: halo_doch.dxf
999
Pro/ENGINEER 2018070 by Parametric Technology Corporation
  0
SECTION
  2
HEADER
  9
$ACADVER
  1
AC1027
  9
$DWGCODEPAGE
  3
ANSI_1251
  9
$EXTMAX
 10
297.0
 20
210.0
 30
0.0
  9
$EXTMIN
 10
0.0
 20
0.0
 30
0.0
  9
$LIMMIN
 10
0.0
 20
0.0
  9
$LIMMAX
 10
297.0
 20
210.0
  9
$VIEWCTR
 10
148.5
 20
105.0
  9
$VIEWSIZE
 40
210.0
  9
$CLAYER
  8
0
  9
$LTSCALE
 40
16.335
  9
$CELTYPE
  6
BYLAYER
  9
$DIMSCALE
 40
1.0
  9
$DIMASZ
 40
3.0
  9
$DIMEXO
 40
0.0
  9
$DIMDLI
 40
11.286
  9
$DIMEXE
 40
1.5
  9
$DIMCEN
 40
2.673
  9
$DIMLFAC
 40
1.0
  9
$DIMBLK
  1
_FILLED
  9
$DIMALT
 70
0
  9
$DIMALTF
 40
25.4
  9
$DIMTXT
 40
3.5
  9
$DIMTOL
 70
1
  9
$DIMLIM
 70
0
  9
$DIMTFAC
 40
1.0
  9
$DIMTP
 40
0.05
  9
$DIMTM
 40
0.05
  9
$DIMGAP
 40
0.625
  9
$DIMDSEP
 70
44
  9
$AUNITS
 70
0
  9
$PDMODE
 70
3
  9
$PDSIZE
 40
1.0
  9
$HANDSEED
  5
261
  9
$TILEMODE
 70
1
  9
$MEASUREMENT
 70
1
  9
$INSUNITS
 70
4
  0
ENDSEC
  0
SECTION
  2
CLASSES
  0
CLASS
  1
ACDBDICTIONARYWDFLT
  2
AcDbDictionaryWithDefault
  3
AutoCAD 2000
 90
0
 91
1
280
0
281
0
  0
CLASS
  1
ACDBPLACEHOLDER
  2
AcDbPlaceHolder
  3
AutoCAD 2000
 90
0
 91
1
280
0
281
0
  0
CLASS
  1
LAYOUT
  2
AcDbLayout
  3
AutoCAD 2000
 90
0
 91
0
280
0
281
0
  0
ENDSEC
  0
SECTION
  2
TABLES
  0
TABLE
  2
VPORT
  5
8
100
AcDbSymbolTable
 70
2
  0
VPORT
  5
1F4
100
AcDbSymbolTableRecord
100
AcDbViewportTableRecord
  2
*ACTIVE
 70
0
 10
0.0
 20
0.0
 11
1.0
 21
1.0
 12
148.5
 22
105.0
 13
0.0
 23
0.0
 14
1.0
 24
1.0
 15
0.0
 25
0.0
 16
0.0
 26
0.0
 36
1.0
 17
0.0
 27
0.0
 37
0.0
 40
210.0
 41
1.4142857143
 42
50.0
 43
0.0
 44
0.0
 50
0.0
 51
0.0
 71
0
 72
100
 73
1
 74
1
 75
0
 76
0
 77
0
 78
0
  0
ENDTAB
  0
TABLE
  2
LTYPE
  5
5
100
AcDbSymbolTable
 70
6
  0
LTYPE
  5
14
100
AcDbSymbolTableRecord
100
AcDbLinetypeTableRecord
  2
BYBLOCK
 70
0
  3

 72
65
 73
0
 40
0.0
  0
LTYPE
  5
15
100
AcDbSymbolTableRecord
100
AcDbLinetypeTableRecord
  2
BYLAYER
 70
0
  3

 72
65
 73
0
 40
0.0
  0
LTYPE
  5
16
100
AcDbSymbolTableRecord
100
AcDbLinetypeTableRecord
  2
CONTINUOUS
 70
64
  3
Solid line
 72
65
 73
0
 40
0.0
  0
LTYPE
  5
1F5
100
AcDbSymbolTableRecord
100
AcDbLinetypeTableRecord
  2
CENTER
 70
64
  3
____ _ ____ _ ____ _ ____ _ ____ _ ____ _ ____
 72
65
 73
4
 40
0.6
 49
0.375
 74
0
 49
-0.075
 74
0
 49
0.075
 74
0
 49
-0.075
 74
0
  0
LTYPE
  5
1F6
100
AcDbSymbolTableRecord
100
AcDbLinetypeTableRecord
  2
HIDDEN
 70
64
  3
- - - - - - - - - - - - - - - - - - - -
 72
65
 73
2
 40
0.2
 49
0.1
 74
0
 49
-0.1
 74
0
  0
LTYPE
  5
1F7
100
AcDbSymbolTableRecord
100
AcDbLinetypeTableRecord
  2
PHANTOM
 70
64
  3
_____ _ _ _____ _ _ _____ _ _ _____
 72
65
 73
6
 40
0.8
 49
0.45
 74
0
 49
-0.05
 74
0
 49
0.1
 74
0
 49
-0.05
 74
0
 49
0.1
 74
0
 49
-0.05
 74
0
  0
LTYPE
  5
1F8
100
AcDbSymbolTableRecord
100
AcDbLinetypeTableRecord
  2
DOT
 70
64
  3
. . . . . . . . . . . . . . . . . . . .
 72
65
 73
2
 40
0.2
 49
0.1
 74
0
 49
-0.1
 74
0
  0
LTYPE
  5
1F9
100
AcDbSymbolTableRecord
100
AcDbLinetypeTableRecord
  2
DASHED
 70
64
  3
- - - - - - - - - - - - - - - - - - - -
 72
65
 73
2
 40
0.2
 49
0.1
 74
0
 49
-0.1
 74
0
  0
ENDTAB
  0
TABLE
  2
LAYER
  5
2
100
AcDbSymbolTable
 70
36
  0
LAYER
  5
10
100
AcDbSymbolTableRecord
100
AcDbLayerTableRecord
  2
0
 70
0
 62
7
  6
CONTINUOUS
370
-3
390
F
  0
LAYER
  5
1FA
100
AcDbSymbolTableRecord
100
AcDbLayerTableRecord
  2
DEFAULT_1
 70
0
 62
7
  6
CENTER
370
-3
390
F
  0
LAYER
  5
1FB
100
AcDbSymbolTableRecord
100
AcDbLayerTableRecord
  2
DEFAULT_2
 70
0
 62
8
  6
HIDDEN
370
-3
390
F
  0
LAYER
  5
1FC
100
AcDbSymbolTableRecord
100
AcDbLayerTableRecord
  2
DEFAULT_3
 70
0
 62
7
  6
PHANTOM
370
-3
390
F
  0
LAYER
  5
1FD
100
AcDbSymbolTableRecord
100
AcDbLayerTableRecord
  2
1__AXES
 70
0
 62
7
  6
CONTINUOUS
370
-3
390
F
  0
LAYER
  5
1FE
100
AcDbSymbolTableRecord
100
AcDbLayerTableRecord
  2
1__CSYS
 70
0
 62
7
  6
CONTINUOUS
370
-3
390
F
  0
LAYER
  5
1FF
100
AcDbSymbolTableRecord
100
AcDbLayerTableRecord
  2
1__CURVES
 70
0
 62
7
  6
CONTINUOUS
370
-3
390
F
  0
LAYER
  5
200
100
AcDbSymbolTableRecord
100
AcDbLayerTableRecord
  2
1__DPLANES
 70
0
 62
7
  6
CONTINUOUS
370
-3
390
F
  0
LAYER
  5
201
100
AcDbSymbolTableRecord
100
AcDbLayerTableRecord
  2
1__DPOINTS
 70
0
 62
7
  6
CONTINUOUS
370
-3
390
F
  0
LAYER
  5
202
100
AcDbSymbolTableRecord
100
AcDbLayerTableRecord
  2
3__DETAIL
 70
0
 62
7
  6
CONTINUOUS
370
-3
390
F
  0
LAYER
  5
203
100
AcDbSymbolTableRecord
100
AcDbLayerTableRecord
  2
3__DIM
 70
0
 62
7
  6
CONTINUOUS
370
-3
390
F
  0
LAYER
  5
204
100
AcDbSymbolTableRecord
100
AcDbLayerTableRecord
  2
3__NOTES
 70
0
 62
7
  6
CONTINUOUS
370
-3
390
F
  0
LAYER
  5
205
100
AcDbSymbolTableRecord
100
AcDbLayerTableRecord
  2
ANNOTATION
 70
0
 62
7
  6
CONTINUOUS
370
-3
390
F
  0
LAYER
  5
206
100
AcDbSymbolTableRecord
100
AcDbLayerTableRecord
  2
SURF_FINISH
 70
0
 62
7
  6
CONTINUOUS
370
-3
390
F
  0
LAYER
  5
207
100
AcDbSymbolTableRecord
100
AcDbLayerTableRecord
  2
TT
 70
0
 62
7
  6
CONTINUOUS
370
-3
390
F
  0
ENDTAB
  0
TABLE
  2
STYLE
  5
3
100
AcDbSymbolTable
 70
1
  0
STYLE
  5
11
100
AcDbSymbolTableRecord
100
AcDbTextStyleTableRecord
  2
STANDARD
 70
0
 40
0.0
 41
0.8
 50
0.0
 71
0
 42
0.2
  3
txt
  4

  0
STYLE
  5
208
100
AcDbSymbolTableRecord
100
AcDbTextStyleTableRecord
  2
TEXTSTYLE_1
 70
0
 40
0.0
 41
0.8
 50
0.0
 71
0
 42
0.2
  3
gdt
  4

  0
ENDTAB
  0
TABLE
  2
VIEW
  5
6
100
AcDbSymbolTable
 70
0
  0
ENDTAB
  0
TABLE
  2
UCS
  5
7
100
AcDbSymbolTable
 70
0
  0
ENDTAB
  0
TABLE
  2
APPID
  5
9
100
AcDbSymbolTable
 70
1
  0
APPID
  5
209
100
AcDbSymbolTableRecord
100
AcDbRegAppTableRecord
  2
ACAD
 70
0
  0
ENDTAB
  0
TABLE
  2
BLOCK_RECORD
  5
1
100
AcDbSymbolTable
 70
0
  0
BLOCK_RECORD
  5
20A
100
AcDbSymbolTableRecord
100
AcDbBlockTableRecord
  2
*Model_Space
  0
BLOCK_RECORD
  5
20B
100
AcDbSymbolTableRecord
100
AcDbBlockTableRecord
  2
*Paper_Space
  0
ENDTAB
  0
TABLE
  2
DIMSTYLE
  5
A
100
AcDbSymbolTable
 70
1
100
AcDbDimStyleTable
 71
0
  0
DIMSTYLE
105
20C
100
AcDbSymbolTableRecord
100
AcDbDimStyleTableRecord
  2
STANDARD
 70
0
  3

  4

 40
1.0
 41
3.0
 42
0.0
 43
0.38
 44
1.5
 45
0.0
 46
0.0
 47
0.05
 48
0.05
140
3.5
141
0.09
142
0.0
143
25.4
144
1.0
145
0.0
146
1.0
147
0.625
 71
1.0
 72
0.0
 73
0
 74
0
 75
0
 76
0
 77
1
 78
8
 79
2
170
0
171
2
172
0
173
0
174
0
175
0
176
0
177
0
178
0
270
2
179
3
271
3
272
3
273
2
274
2
275
0
280
0
281
0
282
0
283
1
284
8
285
0
286
0
287
3
288
0
340
11
278
44
  0
ENDTAB
  0
ENDSEC
  0
SECTION
  2
BLOCKS
  0
BLOCK
  5
20
100
AcDbEntity
  8
0
100
AcDbBlockBegin
  2
*Model_Space
 70
0
 10
0.0
 20
0.0
 30
0.0
  3
*Model_Space
  1

  0
ENDBLK
  5
21
100
AcDbEntity
  8
0
100
AcDbBlockEnd
  0
BLOCK
  5
1C
100
AcDbEntity
  8
0
100
AcDbBlockBegin
  2
*Paper_Space
 70
0
 10
0.0
 20
0.0
 30
0.0
  3
*Paper_Space
  1

  0
ENDBLK
  5
1D
100
AcDbEntity
  8
0
100
AcDbBlockEnd
  0
ENDSEC
  0
SECTION
  2
ENTITIES
  0
HATCH
  5
20D
100
AcDbEntity
  8
0
100
AcDbHatch
 62
2
  6
CONTINUOUS
 10
0.0
 20
0.0
 30
0.0
210
0.0
220
0.0
230
1.0
  2
XSEC0001
 70
1
 71
0
 91
3
 92
1
 93
41
 72
2
 10
42.0
 20
42.0
 40
39.5
 50
59.573188356
 51
77.9304679211
 73
1
 72
2
 10
51.1262671304
 20
79.402690388
 40
1.5
 50
125.3040583535
 51
173.0
 73
1
 72
1
 10
49.6086735043
 20
79.3511457322
 11
49.637447903
 21
79.5854944031
 72
2
 10
46.6310350494
 20
79.7167537624
 40
3.0
 50
300.3976219664
 51
353.0
 73
1
 72
1
 10
43.5179938964
 20
74.4123959865
 11
48.1490289458
 21
77.1291497489
 72
2
 10
42.0
 20
77.0
 40
3.0
 50
180.0
 51
300.3976219664
 73
1
 72
1
 10
39.0
 20
80.2361085886
 11
39.0
 21
77.0
 72
2
 10
37.5
 20
80.2361085886
 40
1.5
 50
0.0
 51
47.6959416465
 73
1
 72
2
 10
42.0
 20
42.0
 40
39.5
 50
95.0695320789
 51
120.426811644
 73
1
 72
2
 10
23.461851798
 20
75.7429557277
 40
1.5
 50
167.8004020764
 51
198.7062168343
 73
1
 72
2
 10
21.0939130872
 20
74.9411663151
 40
1.0
 50
304.0
 51
18.7062168343
 73
1
 72
1
 10
21.6531059907
 20
74.1121287426
 11
19.8482333455
 21
72.8947267716
 72
2
 10
19.289040442
 20
73.7237643441
 40
1.0
 50
229.2937831657
 51
304.0
 73
1
 72
2
 10
17.6585887901
 20
71.8286054034
 40
1.5
 50
49.2937831657
 51
80.1995979236
 73
1
 72
2
 10
42.0
 20
42.0
 40
39.5
 50
127.573188356
 51
166.5880695745
 73
1
 72
2
 10
4.82137711
 20
52.0
 40
1.5
 50
213.9616600069
 51
270.0
 73
1
 72
1
 10
4.82137711
 20
50.5
 11
4.9135573376
 21
50.5
 72
1
 10
4.9135573376
 20
50.5
 11
4.9135573376
 21
49.5
 72
1
 10
4.9135573376
 20
49.5
 11
1.6918122461
 21
49.5
 72
2
 10
42.0
 20
42.0
 40
41.0
 50
125.3975966282
 51
169.4597140348
 73
1
 72
1
 10
19.3624391921
 20
73.7732724262
 11
18.2508738253
 21
75.4212358529
 72
1
 10
21.0205143372
 20
74.8916582331
 11
19.3624391921
 21
73.7732724262
 72
1
 10
19.9089489704
 20
76.5396216599
 11
21.0205143372
 21
74.8916582331
 72
2
 10
42.0
 20
42.0
 40
41.0
 50
92.4462947381
 51
122.6024033718
 73
1
 72
1
 10
40.25
 20
82.9626354133
 11
40.25
 21
77.0
 72
2
 10
42.0
 20
77.0
 40
1.75
 50
180.0
 51
360.0
 73
1
 72
1
 10
43.75
 20
77.0
 11
43.75
 21
82.9626354133
 72
2
 10
42.0
 20
42.0
 40
41.0
 50
57.3975966282
 51
87.5537052619
 73
1
 72
1
 10
62.9794856628
 20
74.8916582331
 11
64.0910510296
 21
76.5396216599
 72
1
 10
64.6375608079
 20
73.7732724262
 11
62.9794856628
 21
74.8916582331
 72
1
 10
65.7491261747
 20
75.4212358529
 11
64.6375608079
 21
73.7732724262
 72
2
 10
42.0
 20
42.0
 40
41.0
 50
46.375863376
 51
54.6024033718
 73
1
 72
1
 10
69.1304141758
 20
70.7087203938
 11
70.2869065398
 21
71.6791327098
 72
2
 10
42.0
 20
42.0
 40
39.5
 50
46.6190475552
 51
52.426811644
 73
1
 72
2
 10
66.3414112099
 20
71.8286054034
 40
1.5
 50
99.8004020764
 51
130.7062168343
 73
1
 72
2
 10
64.710959558
 20
73.7237643441
 40
1.0
 50
236.0
 51
310.7062168343
 73
1
 72
1
 10
64.1517666545
 20
72.8947267716
 11
62.3468940093
 21
74.1121287426
 72
2
 10
62.9060869128
 20
74.9411663151
 40
1.0
 50
161.2937831657
 51
236.0
 73
1
 72
2
 10
60.538148202
 20
75.7429557277
 40
1.5
 50
341.2937831657
 51
12.1995979236
 73
1
 72
2
 10
46.6310350494
 20
79.7167537624
 40
1.25
 50
90.0
 51
270.0
 73
1
 72
2
 10
46.6310350494
 20
79.7167537624
 40
1.25
 50
270.0
 51
90.0
 73
1
 97
0
 92
1
 93
39
 72
2
 10
42.0
 20
42.0
 40
39.5
 50
342.0695320789
 51
30.6065237516
 73
1
 72
1
 10
77.161122136
 20
63.0878042986
 11
75.9970204288
 21
62.1110069854
 72
2
 10
42.0
 20
42.0
 40
41.0
 50
332.4462947381
 51
30.9531287376
 73
1
 72
1
 10
78.3496828738
 20
23.03422675
 11
75.7839653438
 21
24.5155444566
 72
2
 10
74.9089653438
 20
23.0
 40
1.75
 50
60.0
 51
240.0
 73
1
 72
1
 10
74.0339653438
 20
21.4844555434
 11
76.5996828738
 21
20.0031378367
 72
2
 10
42.0
 20
42.0
 40
41.0
 50
212.4462947381
 51
327.5537052619
 73
1
 72
1
 10
7.4003171262
 20
20.0031378367
 11
9.9660346562
 21
21.4844555434
 72
2
 10
9.0910346562
 20
23.0
 40
1.75
 50
300.0
 51
120.0
 73
1
 72
1
 10
8.2160346562
 20
24.5155444566
 11
5.6503171262
 21
23.03422675
 72
2
 10
42.0
 20
42.0
 40
41.0
 50
190.5402859652
 51
207.5537052619
 73
1
 72
1
 10
1.6918122461
 20
34.5
 11
4.9135573376
 21
34.5
 72
1
 10
4.9135573376
 20
34.5
 11
4.9135573376
 21
33.5
 72
1
 10
4.9135573376
 20
33.5
 11
4.82137711
 21
33.5
 72
2
 10
4.82137711
 20
32.0
 40
1.5
 50
90.0
 51
146.0383399931
 73
1
 72
2
 10
42.0
 20
42.0
 40
39.5
 50
193.4119304255
 51
197.9304679211
 73
1
 72
2
 10
5.0451863888
 20
31.2022339827
 40
1.5
 50
245.3040583535
 51
293.0
 73
1
 72
1
 10
5.6312830816
 20
29.8214767025
 11
5.8486221833
 21
29.9137316778
 72
2
 10
7.0208155688
 20
27.1522171174
 40
3.0
 50
30.0
 51
113.0
 73
1
 72
1
 10
14.2499268296
 20
20.6310291202
 11
9.6188917802
 21
28.6522171174
 72
2
 10
11.6518506182
 20
19.1310291202
 40
3.0
 50
307.0
 51
30.0
 73
1
 72
1
 10
13.2687309846
 20
16.5930288944
 11
13.4572956877
 21
16.7351225901
 72
2
 10
14.1714535193
 20
15.3950756293
 40
1.5
 50
127.0
 51
174.6959416465
 73
1
 72
2
 10
42.0
 20
42.0
 40
39.5
 50
222.0695320789
 51
317.9304679211
 73
1
 72
2
 10
69.8285464807
 20
15.3950756293
 40
1.5
 50
5.3040583535
 51
53.0
 73
1
 72
1
 10
70.5427043123
 20
16.7351225901
 11
70.7312690154
 21
16.5930288944
 72
2
 10
72.3481493818
 20
19.1310291202
 40
3.0
 50
150.0
 51
233.0
 73
1
 72
1
 10
74.3811082198
 20
28.6522171174
 11
69.7500731704
 21
20.6310291202
 72
2
 10
76.9791844312
 20
27.1522171174
 40
3.0
 50
67.0
 51
150.0
 73
1
 72
1
 10
78.1513778167
 20
29.9137316778
 11
78.3687169184
 21
29.8214767025
 72
2
 10
78.9548136112
 20
31.2022339827
 40
1.5
 50
247.0
 51
294.6959416465
 73
1
 72
2
 10
11.6518506182
 20
19.1310291202
 40
1.25
 50
90.0
 51
270.0
 73
1
 72
2
 10
11.6518506182
 20
19.1310291202
 40
1.25
 50
270.0
 51
90.0
 73
1
 72
2
 10
72.3481493818
 20
19.1310291202
 40
1.25
 50
90.0
 51
270.0
 73
1
 72
2
 10
72.3481493818
 20
19.1310291202
 40
1.25
 50
270.0
 51
90.0
 73
1
 72
2
 10
76.9791844312
 20
27.1522171174
 40
1.25
 50
90.0
 51
270.0
 73
1
 72
2
 10
76.9791844312
 20
27.1522171174
 40
1.25
 50
270.0
 51
90.0
 73
1
 72
2
 10
7.0208155688
 20
27.1522171174
 40
1.25
 50
90.0
 51
270.0
 73
1
 72
2
 10
7.0208155688
 20
27.1522171174
 40
1.25
 50
270.0
 51
90.0
 73
1
 97
0
 92
1
 93
4
 72
2
 10
42.0
 20
42.0
 40
4.5
 50
180.0
 51
360.0
 73
1
 72
2
 10
42.0
 20
42.0
 40
4.5
 50
0.0
 51
180.0
 73
1
 72
2
 10
42.0
 20
42.0
 40
2.25
 50
180.0
 51
360.0
 73
1
 72
2
 10
42.0
 20
42.0
 40
2.25
 50
0.0
 51
180.0
 73
1
 97
0
 75
0
 76
1
 98
1
 10
0.0
 20
0.0
  0
LINE
  5
20E
100
AcDbEntity
  8
0
100
AcDbLine
 62
7
  6
CONTINUOUS
 10
0.0
 20
0.0
 11
0.0
 21
210.0
  0
LINE
  5
20F
100
AcDbEntity
  8
0
100
AcDbLine
 62
7
  6
CONTINUOUS
 10
0.0
 20
0.0
 11
297.0
 21
0.0
  0
LINE
  5
210
100
AcDbEntity
  8
0
100
AcDbLine
 62
7
  6
CONTINUOUS
 10
0.0
 20
210.0
 11
297.0
 21
210.0
  0
LINE
  5
211
100
AcDbEntity
  8
0
100
AcDbLine
 62
7
  6
CONTINUOUS
 10
297.0
 20
0.0
 11
297.0
 21
210.0
  0
LINE
  5
212
100
AcDbEntity
  8
0
100
AcDbLine
 62
7
  6
CONTINUOUS
 10
21.0205143372
 20
74.8916582331
 11
19.3624391921
 21
73.7732724262
  0
LINE
  5
213
100
AcDbEntity
  8
0
100
AcDbLine
 62
7
  6
CONTINUOUS
 10
4.9135573376
 20
50.5
 11
4.9135573376
 21
49.5
  0
LINE
  5
214
100
AcDbEntity
  8
0
100
AcDbLine
 62
7
  6
CONTINUOUS
 10
4.9135573376
 20
34.5
 11
4.9135573376
 21
33.5
  0
LINE
  5
215
100
AcDbEntity
  8
0
100
AcDbLine
 62
7
  6
CONTINUOUS
 10
21.6531059907
 20
74.1121287426
 11
19.8482333455
 21
72.8947267716
  0
LINE
  5
216
100
AcDbEntity
  8
0
100
AcDbLine
 62
7
  6
CONTINUOUS
 10
14.2499268296
 20
20.6310291202
 11
9.6188917802
 21
28.6522171174
  0
LINE
  5
217
100
AcDbEntity
  8
0
100
AcDbLine
 62
7
  6
CONTINUOUS
 10
43.5179938964
 20
74.4123959865
 11
48.1490289458
 21
77.1291497489
  0
LINE
  5
218
100
AcDbEntity
  8
0
100
AcDbLine
 62
7
  6
CONTINUOUS
 10
4.9135573376
 20
33.5
 11
4.82137711
 21
33.5
  0
LINE
  5
219
100
AcDbEntity
  8
0
100
AcDbLine
 62
7
  6
CONTINUOUS
 10
1.6918122461
 20
34.5
 11
4.9135573376
 21
34.5
  0
LINE
  5
21A
100
AcDbEntity
  8
0
100
AcDbLine
 62
7
  6
CONTINUOUS
 10
69.1304141758
 20
70.7087203938
 11
70.2869065398
 21
71.6791327098
  0
LINE
  5
21B
100
AcDbEntity
  8
0
100
AcDbLine
 62
7
  6
CONTINUOUS
 10
39.0
 20
80.2361085886
 11
39.0
 21
77.0
  0
LINE
  5
21C
100
AcDbEntity
  8
0
100
AcDbLine
 62
7
  6
CONTINUOUS
 10
40.25
 20
82.9626354133
 11
40.25
 21
77.0
  0
LINE
  5
21D
100
AcDbEntity
  8
0
100
AcDbLine
 62
7
  6
CONTINUOUS
 10
62.9794856628
 20
74.8916582331
 11
64.0910510296
 21
76.5396216599
  0
LINE
  5
21E
100
AcDbEntity
  8
0
100
AcDbLine
 62
7
  6
CONTINUOUS
 10
8.2160346562
 20
24.5155444566
 11
5.6503171262
 21
23.03422675
  0
LINE
  5
21F
100
AcDbEntity
  8
0
100
AcDbLine
 62
7
  6
CONTINUOUS
 10
5.6312830816
 20
29.8214767025
 11
5.8486221833
 21
29.9137316778
  0
LINE
  5
220
100
AcDbEntity
  8
0
100
AcDbLine
 62
7
  6
CONTINUOUS
 10
74.0339653438
 20
21.4844555434
 11
76.5996828738
 21
20.0031378367
  0
LINE
  5
221
100
AcDbEntity
  8
0
100
AcDbLine
 62
7
  6
CONTINUOUS
 10
70.5427043123
 20
16.7351225901
 11
70.7312690154
 21
16.5930288944
  0
LINE
  5
222
100
AcDbEntity
  8
0
100
AcDbLine
 62
7
  6
CONTINUOUS
 10
19.3624391921
 20
73.7732724262
 11
18.2508738253
 21
75.4212358529
  0
LINE
  5
223
100
AcDbEntity
  8
0
100
AcDbLine
 62
7
  6
CONTINUOUS
 10
43.75
 20
77.0
 11
43.75
 21
82.9626354133
  0
LINE
  5
224
100
AcDbEntity
  8
0
100
AcDbLine
 62
7
  6
CONTINUOUS
 10
49.6086735043
 20
79.3511457322
 11
49.637447903
 21
79.5854944031
  0
LINE
  5
225
100
AcDbEntity
  8
0
100
AcDbLine
 62
7
  6
CONTINUOUS
 10
65.7491261747
 20
75.4212358529
 11
64.6375608079
 21
73.7732724262
  0
LINE
  5
226
100
AcDbEntity
  8
0
100
AcDbLine
 62
7
  6
CONTINUOUS
 10
13.2687309846
 20
16.5930288944
 11
13.4572956877
 21
16.7351225901
  0
LINE
  5
227
100
AcDbEntity
  8
0
100
AcDbLine
 62
7
  6
CONTINUOUS
 10
7.4003171262
 20
20.0031378367
 11
9.9660346562
 21
21.4844555434
  0
LINE
  5
228
100
AcDbEntity
  8
0
100
AcDbLine
 62
7
  6
CONTINUOUS
 10
78.1513778167
 20
29.9137316778
 11
78.3687169184
 21
29.8214767025
  0
LINE
  5
229
100
AcDbEntity
  8
0
100
AcDbLine
 62
7
  6
CONTINUOUS
 10
78.3496828738
 20
23.03422675
 11
75.7839653438
 21
24.5155444566
  0
LINE
  5
22A
100
AcDbEntity
  8
0
100
AcDbLine
 62
7
  6
CONTINUOUS
 10
19.9089489704
 20
76.5396216599
 11
21.0205143372
 21
74.8916582331
  0
LINE
  5
22B
100
AcDbEntity
  8
0
100
AcDbLine
 62
7
  6
CONTINUOUS
 10
77.161122136
 20
63.0878042986
 11
75.9970204288
 21
62.1110069854
  0
LINE
  5
22C
100
AcDbEntity
  8
0
100
AcDbLine
 62
7
  6
CONTINUOUS
 10
4.9135573376
 20
49.5
 11
1.6918122461
 21
49.5
  0
LINE
  5
22D
100
AcDbEntity
  8
0
100
AcDbLine
 62
7
  6
CONTINUOUS
 10
4.82137711
 20
50.5
 11
4.9135573376
 21
50.5
  0
LINE
  5
22E
100
AcDbEntity
  8
0
100
AcDbLine
 62
7
  6
CONTINUOUS
 10
74.3811082198
 20
28.6522171174
 11
69.7500731704
 21
20.6310291202
  0
LINE
  5
22F
100
AcDbEntity
  8
0
100
AcDbLine
 62
7
  6
CONTINUOUS
 10
64.1517666545
 20
72.8947267716
 11
62.3468940093
 21
74.1121287426
  0
LINE
  5
230
100
AcDbEntity
  8
0
100
AcDbLine
 62
7
  6
CONTINUOUS
 10
64.6375608079
 20
73.7732724262
 11
62.9794856628
 21
74.8916582331
  0
ARC
  5
231
100
AcDbEntity
  8
0
100
AcDbCircle
 62
7
  6
CONTINUOUS
 10
7.0208155688
 20
27.1522171174
 40
3.0
100
AcDbArc
 50
30.0
 51
113.0
  0
ARC
  5
232
100
AcDbEntity
  8
0
100
AcDbCircle
 62
7
  6
CONTINUOUS
 10
11.6518506182
 20
19.1310291202
 40
3.0
100
AcDbArc
 50
307.0
 51
30.0
  0
ARC
  5
233
100
AcDbEntity
  8
0
100
AcDbCircle
 62
7
  6
CONTINUOUS
 10
9.0910346562
 20
23.0
 40
1.75
100
AcDbArc
 50
300.0
 51
120.0
  0
ARC
  5
234
100
AcDbEntity
  8
0
100
AcDbCircle
 62
7
  6
CONTINUOUS
 10
14.1714535193
 20
15.3950756293
 40
1.5
100
AcDbArc
 50
127.0
 51
174.6959416465
  0
ARC
  5
235
100
AcDbEntity
  8
0
100
AcDbCircle
 62
7
  6
CONTINUOUS
 10
5.0451863888
 20
31.2022339827
 40
1.5
100
AcDbArc
 50
245.3040583535
 51
293.0
  0
ARC
  5
236
100
AcDbEntity
  8
0
100
AcDbCircle
 62
7
  6
CONTINUOUS
 10
4.82137711
 20
32.0
 40
1.5
100
AcDbArc
 50
90.0
 51
146.0383399931
  0
CIRCLE
  5
237
100
AcDbEntity
  8
0
100
AcDbCircle
 62
7
  6
CONTINUOUS
 10
7.0208155688
 20
27.1522171174
 40
1.25
  0
CIRCLE
  5
238
100
AcDbEntity
  8
0
100
AcDbCircle
 62
7
  6
CONTINUOUS
 10
11.6518506182
 20
19.1310291202
 40
1.25
  0
ARC
  5
239
100
AcDbEntity
  8
0
100
AcDbCircle
 62
7
  6
CONTINUOUS
 10
37.5
 20
80.2361085886
 40
1.5
100
AcDbArc
 50
0.0
 51
47.6959416465
  0
ARC
  5
23A
100
AcDbEntity
  8
0
100
AcDbCircle
 62
7
  6
CONTINUOUS
 10
23.461851798
 20
75.7429557277
 40
1.5
100
AcDbArc
 50
167.8004020764
 51
198.7062168343
  0
ARC
  5
23B
100
AcDbEntity
  8
0
100
AcDbCircle
 62
7
  6
CONTINUOUS
 10
17.6585887901
 20
71.8286054034
 40
1.5
100
AcDbArc
 50
49.2937831657
 51
80.1995979236
  0
ARC
  5
23C
100
AcDbEntity
  8
0
100
AcDbCircle
 62
7
  6
CONTINUOUS
 10
4.82137711
 20
52.0
 40
1.5
100
AcDbArc
 50
213.9616600069
 51
270.0
  0
ARC
  5
23D
100
AcDbEntity
  8
0
100
AcDbCircle
 62
7
  6
CONTINUOUS
 10
19.289040442
 20
73.7237643441
 40
1.0
100
AcDbArc
 50
229.2937831657
 51
304.0
  0
ARC
  5
23E
100
AcDbEntity
  8
0
100
AcDbCircle
 62
7
  6
CONTINUOUS
 10
21.0939130872
 20
74.9411663151
 40
1.0
100
AcDbArc
 50
304.0
 51
18.7062168343
  0
ARC
  5
23F
100
AcDbEntity
  8
0
100
AcDbCircle
 62
7
  6
CONTINUOUS
 10
42.0
 20
42.0
 40
41.0
100
AcDbArc
 50
57.3975966282
 51
87.5537052619
  0
ARC
  5
240
100
AcDbEntity
  8
0
100
AcDbCircle
 62
7
  6
CONTINUOUS
 10
42.0
 20
42.0
 40
41.0
100
AcDbArc
 50
46.375863376
 51
54.6024033718
  0
ARC
  5
241
100
AcDbEntity
  8
0
100
AcDbCircle
 62
7
  6
CONTINUOUS
 10
42.0
 20
42.0
 40
41.0
100
AcDbArc
 50
332.4462947381
 51
30.9531287376
  0
ARC
  5
242
100
AcDbEntity
  8
0
100
AcDbCircle
 62
7
  6
CONTINUOUS
 10
42.0
 20
42.0
 40
41.0
100
AcDbArc
 50
212.4462947381
 51
327.5537052619
  0
ARC
  5
243
100
AcDbEntity
  8
0
100
AcDbCircle
 62
7
  6
CONTINUOUS
 10
42.0
 20
42.0
 40
41.0
100
AcDbArc
 50
190.5402859652
 51
207.5537052619
  0
ARC
  5
244
100
AcDbEntity
  8
0
100
AcDbCircle
 62
7
  6
CONTINUOUS
 10
42.0
 20
42.0
 40
41.0
100
AcDbArc
 50
125.3975966282
 51
169.4597140348
  0
ARC
  5
245
100
AcDbEntity
  8
0
100
AcDbCircle
 62
7
  6
CONTINUOUS
 10
42.0
 20
42.0
 40
41.0
100
AcDbArc
 50
92.4462947381
 51
122.6024033718
  0
ARC
  5
246
100
AcDbEntity
  8
0
100
AcDbCircle
 62
7
  6
CONTINUOUS
 10
42.0
 20
42.0
 40
39.5
100
AcDbArc
 50
59.573188356
 51
77.9304679211
  0
ARC
  5
247
100
AcDbEntity
  8
0
100
AcDbCircle
 62
7
  6
CONTINUOUS
 10
42.0
 20
42.0
 40
39.5
100
AcDbArc
 50
46.6190475552
 51
52.426811644
  0
ARC
  5
248
100
AcDbEntity
  8
0
100
AcDbCircle
 62
7
  6
CONTINUOUS
 10
42.0
 20
42.0
 40
39.5
100
AcDbArc
 50
342.0695320789
 51
30.6065237516
  0
ARC
  5
249
100
AcDbEntity
  8
0
100
AcDbCircle
 62
7
  6
CONTINUOUS
 10
42.0
 20
42.0
 40
39.5
100
AcDbArc
 50
222.0695320789
 51
317.9304679211
  0
ARC
  5
24A
100
AcDbEntity
  8
0
100
AcDbCircle
 62
7
  6
CONTINUOUS
 10
42.0
 20
42.0
 40
39.5
100
AcDbArc
 50
193.4119304255
 51
197.9304679211
  0
ARC
  5
24B
100
AcDbEntity
  8
0
100
AcDbCircle
 62
7
  6
CONTINUOUS
 10
42.0
 20
42.0
 40
39.5
100
AcDbArc
 50
127.573188356
 51
166.5880695745
  0
ARC
  5
24C
100
AcDbEntity
  8
0
100
AcDbCircle
 62
7
  6
CONTINUOUS
 10
42.0
 20
42.0
 40
39.5
100
AcDbArc
 50
95.0695320789
 51
120.426811644
  0
CIRCLE
  5
24D
100
AcDbEntity
  8
0
100
AcDbCircle
 62
7
  6
CONTINUOUS
 10
42.0
 20
42.0
 40
4.5
  0
ARC
  5
24E
100
AcDbEntity
  8
0
100
AcDbCircle
 62
7
  6
CONTINUOUS
 10
72.3481493818
 20
19.1310291202
 40
3.0
100
AcDbArc
 50
150.0
 51
233.0
  0
ARC
  5
24F
100
AcDbEntity
  8
0
100
AcDbCircle
 62
7
  6
CONTINUOUS
 10
76.9791844312
 20
27.1522171174
 40
3.0
100
AcDbArc
 50
67.0
 51
150.0
  0
CIRCLE
  5
250
100
AcDbEntity
  8
0
100
AcDbCircle
 62
7
  6
CONTINUOUS
 10
42.0
 20
42.0
 40
2.25
  0
ARC
  5
251
100
AcDbEntity
  8
0
100
AcDbCircle
 62
7
  6
CONTINUOUS
 10
74.9089653438
 20
23.0
 40
1.75
100
AcDbArc
 50
60.0
 51
240.0
  0
ARC
  5
252
100
AcDbEntity
  8
0
100
AcDbCircle
 62
7
  6
CONTINUOUS
 10
69.8285464807
 20
15.3950756293
 40
1.5
100
AcDbArc
 50
5.3040583535
 51
53.0
  0
ARC
  5
253
100
AcDbEntity
  8
0
100
AcDbCircle
 62
7
  6
CONTINUOUS
 10
78.9548136112
 20
31.2022339827
 40
1.5
100
AcDbArc
 50
247.0
 51
294.6959416465
  0
CIRCLE
  5
254
100
AcDbEntity
  8
0
100
AcDbCircle
 62
7
  6
CONTINUOUS
 10
76.9791844312
 20
27.1522171174
 40
1.25
  0
CIRCLE
  5
255
100
AcDbEntity
  8
0
100
AcDbCircle
 62
7
  6
CONTINUOUS
 10
72.3481493818
 20
19.1310291202
 40
1.25
  0
ARC
  5
256
100
AcDbEntity
  8
0
100
AcDbCircle
 62
7
  6
CONTINUOUS
 10
46.6310350494
 20
79.7167537624
 40
3.0
100
AcDbArc
 50
300.3976219664
 51
353.0
  0
ARC
  5
257
100
AcDbEntity
  8
0
100
AcDbCircle
 62
7
  6
CONTINUOUS
 10
42.0
 20
77.0
 40
3.0
100
AcDbArc
 50
180.0
 51
300.3976219664
  0
ARC
  5
258
100
AcDbEntity
  8
0
100
AcDbCircle
 62
7
  6
CONTINUOUS
 10
42.0
 20
77.0
 40
1.75
100
AcDbArc
 50
180.0
 51
360.0
  0
ARC
  5
259
100
AcDbEntity
  8
0
100
AcDbCircle
 62
7
  6
CONTINUOUS
 10
51.1262671304
 20
79.402690388
 40
1.5
100
AcDbArc
 50
125.3040583535
 51
173.0
  0
ARC
  5
25A
100
AcDbEntity
  8
0
100
AcDbCircle
 62
7
  6
CONTINUOUS
 10
66.3414112099
 20
71.8286054034
 40
1.5
100
AcDbArc
 50
99.8004020764
 51
130.7062168343
  0
ARC
  5
25B
100
AcDbEntity
  8
0
100
AcDbCircle
 62
7
  6
CONTINUOUS
 10
60.538148202
 20
75.7429557277
 40
1.5
100
AcDbArc
 50
341.2937831657
 51
12.1995979236
  0
CIRCLE
  5
25C
100
AcDbEntity
  8
0
100
AcDbCircle
 62
7
  6
CONTINUOUS
 10
46.6310350494
 20
79.7167537624
 40
1.25
  0
ARC
  5
25D
100
AcDbEntity
  8
0
100
AcDbCircle
 62
7
  6
CONTINUOUS
 10
62.9060869128
 20
74.9411663151
 40
1.0
100
AcDbArc
 50
161.2937831657
 51
236.0
  0
ARC
  5
25E
100
AcDbEntity
  8
0
100
AcDbCircle
 62
7
  6
CONTINUOUS
 10
64.710959558
 20
73.7237643441
 40
1.0
100
AcDbArc
 50
236.0
 51
310.7062168343
  0
ENDSEC
  0
SECTION
  2
OBJECTS
  0
DICTIONARY
  5
C
100
AcDbDictionary
280
0
281
1
  3
ACAD_GROUP
350
D
  3
ACAD_MLINESTYLE
350
17
  3
ACAD_LAYOUT
350
1A
  3
ACAD_PLOTSETTINGS
350
19
  3
ACAD_PLOTSTYLENAME
350
E
  0
DICTIONARY
  5
D
102
{ACAD_REACTORS
330
C
102
}
100
AcDbDictionary
280
0
281
1
  0
ACDBDICTIONARYWDFLT
  5
E
102
{ACAD_REACTORS
330
C
102
}
100
AcDbDictionary
281
1
  3
Normal
350
F
100
AcDbDictionaryWithDefault
340
F
  0
DICTIONARY
  5
17
102
{ACAD_REACTORS
330
C
102
}
100
AcDbDictionary
280
0
281
1
  3
Standard
350
18
  0
DICTIONARY
  5
19
102
{ACAD_REACTORS
330
C
102
}
100
AcDbDictionary
281
1
  0
DICTIONARY
  5
1A
102
{ACAD_REACTORS
330
C
102
}
100
AcDbDictionary
281
1
  3
Model
350
25F
  3
Layout1
350
260
  0
ACDBPLACEHOLDER
  5
F
102
{ACAD_REACTORS
330
E
102
}
  0
MLINESTYLE
  5
18
102
{ACAD_REACTORS
330
17
102
}
100
AcDbMlineStyle
  2
STANDARD
 70
0
  3

 62
256
 51
90.0
 52
90.0
 71
2
 49
0.5
 62
256
  6
BYLAYER
 49
-0.5
 62
256
  6
BYLAYER
  0
LAYOUT
  5
25F
102
{ACAD_REACTORS
330
1A
102
}
100
AcDbPlotSettings
  1

  2
none_device
  4
ISO_A4_(297.00_x_210.00_MM)
  6

 40
0.0
 41
0.0
 42
0.0
 43
0.0
 44
297.0
 45
210.0
 46
0.0
 47
0.0
 48
0.0
 49
0.0
140
0.0
141
0.0
142
1.0
143
1.0
 70
1024
 72
1
 73
0
 74
0
  7

 75
0
147
1.0
148
0.0
149
0.0
100
AcDbLayout
  1
Model
 70
0
 71
0
 10
0.0
 20
0.0
 11
297.0
 21
210.0
 12
0.0
 22
0.0
 32
0.0
 14
0.0
 24
0.0
 34
0.0
 15
0.0
 25
0.0
 35
0.0
146
0.0
 13
0.0
 23
0.0
 33
0.0
 16
1.0
 26
0.0
 36
0.0
 17
0.0
 27
1.0
 37
0.0
 76
0
330
20A
345
0
346
0
  0
LAYOUT
  5
260
102
{ACAD_REACTORS
330
1A
102
}
100
AcDbPlotSettings
  1

  2
none_device
  4
ISO_A4_(297.00_x_210.00_MM)
  6

 40
0.0
 41
0.0
 42
0.0
 43
0.0
 44
297.0
 45
210.0
 46
0.0
 47
0.0
 48
0.0
 49
0.0
140
0.0
141
0.0
142
1.0
143
1.0
 70
0
 72
1
 73
0
 74
0
  7

 75
0
147
1.0
148
0.0
149
0.0
100
AcDbLayout
  1
Layout1
 70
0
 71
1
 10
0.0
 20
0.0
 11
297.0
 21
210.0
 12
0.0
 22
0.0
 32
0.0
 14
0.0
 24
0.0
 34
0.0
 15
0.0
 25
0.0
 35
0.0
146
0.0
 13
0.0
 23
0.0
 33
0.0
 16
1.0
 26
0.0
 36
0.0
 17
0.0
 27
1.0
 37
0.0
 76
0
330
20B
345
0
346
0
  0
ENDSEC
  0
EOF
