999
DXF file: plata_da_zone-top.dxf
999
Pro/ENGINEER 2018070 by Parametric Technology Corporation
  0
SECTION
  2
HEADER
  9
$ACADVER
  1
AC1027
  9
$DWGCODEPAGE
  3
ANSI_1251
  9
$EXTMAX
 10
210.0
 20
297.0
 30
0.0
  9
$EXTMIN
 10
0.0
 20
0.0
 30
0.0
  9
$LIMMIN
 10
0.0
 20
0.0
  9
$LIMMAX
 10
210.0
 20
297.0
  9
$VIEWCTR
 10
105.0
 20
148.5
  9
$VIEWSIZE
 40
297.0
  9
$CLAYER
  8
0
  9
$LTSCALE
 40
19.36
  9
$CELTYPE
  6
BYLAYER
  9
$DIMSCALE
 40
1.0
  9
$DIMASZ
 40
3.0
  9
$DIMEXO
 40
0.0
  9
$DIMDLI
 40
13.376
  9
$DIMEXE
 40
1.5
  9
$DIMCEN
 40
3.168
  9
$DIMLFAC
 40
1.0
  9
$DIMBLK
  1
_FILLED
  9
$DIMALT
 70
0
  9
$DIMALTF
 40
25.4
  9
$DIMTXT
 40
3.5
  9
$DIMTOL
 70
1
  9
$DIMLIM
 70
0
  9
$DIMTFAC
 40
1.0
  9
$DIMTP
 40
0.05
  9
$DIMTM
 40
0.05
  9
$DIMGAP
 40
0.625
  9
$DIMDSEP
 70
44
  9
$AUNITS
 70
0
  9
$PDMODE
 70
3
  9
$PDSIZE
 40
1.0
  9
$HANDSEED
  5
25D
  9
$TILEMODE
 70
1
  9
$MEASUREMENT
 70
1
  9
$INSUNITS
 70
4
  0
ENDSEC
  0
SECTION
  2
CLASSES
  0
CLASS
  1
ACDBDICTIONARYWDFLT
  2
AcDbDictionaryWithDefault
  3
AutoCAD 2000
 90
0
 91
1
280
0
281
0
  0
CLASS
  1
ACDBPLACEHOLDER
  2
AcDbPlaceHolder
  3
AutoCAD 2000
 90
0
 91
1
280
0
281
0
  0
CLASS
  1
LAYOUT
  2
AcDbLayout
  3
AutoCAD 2000
 90
0
 91
0
280
0
281
0
  0
ENDSEC
  0
SECTION
  2
TABLES
  0
TABLE
  2
VPORT
  5
8
100
AcDbSymbolTable
 70
2
  0
VPORT
  5
1F4
100
AcDbSymbolTableRecord
100
AcDbViewportTableRecord
  2
*ACTIVE
 70
0
 10
0.0
 20
0.0
 11
1.0
 21
1.0
 12
105.0
 22
148.5
 13
0.0
 23
0.0
 14
1.0
 24
1.0
 15
0.0
 25
0.0
 16
0.0
 26
0.0
 36
1.0
 17
0.0
 27
0.0
 37
0.0
 40
297.0
 41
0.7070707071
 42
50.0
 43
0.0
 44
0.0
 50
0.0
 51
0.0
 71
0
 72
100
 73
1
 74
1
 75
0
 76
0
 77
0
 78
0
  0
ENDTAB
  0
TABLE
  2
LTYPE
  5
5
100
AcDbSymbolTable
 70
6
  0
LTYPE
  5
14
100
AcDbSymbolTableRecord
100
AcDbLinetypeTableRecord
  2
BYBLOCK
 70
0
  3

 72
65
 73
0
 40
0.0
  0
LTYPE
  5
15
100
AcDbSymbolTableRecord
100
AcDbLinetypeTableRecord
  2
BYLAYER
 70
0
  3

 72
65
 73
0
 40
0.0
  0
LTYPE
  5
16
100
AcDbSymbolTableRecord
100
AcDbLinetypeTableRecord
  2
CONTINUOUS
 70
64
  3
Solid line
 72
65
 73
0
 40
0.0
  0
LTYPE
  5
1F5
100
AcDbSymbolTableRecord
100
AcDbLinetypeTableRecord
  2
CENTER
 70
64
  3
____ _ ____ _ ____ _ ____ _ ____ _ ____ _ ____
 72
65
 73
4
 40
0.6
 49
0.375
 74
0
 49
-0.075
 74
0
 49
0.075
 74
0
 49
-0.075
 74
0
  0
LTYPE
  5
1F6
100
AcDbSymbolTableRecord
100
AcDbLinetypeTableRecord
  2
HIDDEN
 70
64
  3
- - - - - - - - - - - - - - - - - - - -
 72
65
 73
2
 40
0.2
 49
0.1
 74
0
 49
-0.1
 74
0
  0
LTYPE
  5
1F7
100
AcDbSymbolTableRecord
100
AcDbLinetypeTableRecord
  2
PHANTOM
 70
64
  3
_____ _ _ _____ _ _ _____ _ _ _____
 72
65
 73
6
 40
0.8
 49
0.45
 74
0
 49
-0.05
 74
0
 49
0.1
 74
0
 49
-0.05
 74
0
 49
0.1
 74
0
 49
-0.05
 74
0
  0
LTYPE
  5
1F8
100
AcDbSymbolTableRecord
100
AcDbLinetypeTableRecord
  2
DOT
 70
64
  3
. . . . . . . . . . . . . . . . . . . .
 72
65
 73
2
 40
0.2
 49
0.1
 74
0
 49
-0.1
 74
0
  0
LTYPE
  5
1F9
100
AcDbSymbolTableRecord
100
AcDbLinetypeTableRecord
  2
DASHED
 70
64
  3
- - - - - - - - - - - - - - - - - - - -
 72
65
 73
2
 40
0.2
 49
0.1
 74
0
 49
-0.1
 74
0
  0
ENDTAB
  0
TABLE
  2
LAYER
  5
2
100
AcDbSymbolTable
 70
36
  0
LAYER
  5
10
100
AcDbSymbolTableRecord
100
AcDbLayerTableRecord
  2
0
 70
0
 62
7
  6
CONTINUOUS
370
-3
390
F
  0
LAYER
  5
1FA
100
AcDbSymbolTableRecord
100
AcDbLayerTableRecord
  2
DEFAULT_1
 70
0
 62
7
  6
CENTER
370
-3
390
F
  0
LAYER
  5
1FB
100
AcDbSymbolTableRecord
100
AcDbLayerTableRecord
  2
DEFAULT_2
 70
0
 62
8
  6
HIDDEN
370
-3
390
F
  0
LAYER
  5
1FC
100
AcDbSymbolTableRecord
100
AcDbLayerTableRecord
  2
DEFAULT_3
 70
0
 62
7
  6
PHANTOM
370
-3
390
F
  0
LAYER
  5
1FD
100
AcDbSymbolTableRecord
100
AcDbLayerTableRecord
  2
1__AXES
 70
0
 62
7
  6
CONTINUOUS
370
-3
390
F
  0
LAYER
  5
1FE
100
AcDbSymbolTableRecord
100
AcDbLayerTableRecord
  2
1__CSYS
 70
0
 62
7
  6
CONTINUOUS
370
-3
390
F
  0
LAYER
  5
1FF
100
AcDbSymbolTableRecord
100
AcDbLayerTableRecord
  2
1__CURVES
 70
0
 62
7
  6
CONTINUOUS
370
-3
390
F
  0
LAYER
  5
200
100
AcDbSymbolTableRecord
100
AcDbLayerTableRecord
  2
1__DPLANES
 70
0
 62
7
  6
CONTINUOUS
370
-3
390
F
  0
LAYER
  5
201
100
AcDbSymbolTableRecord
100
AcDbLayerTableRecord
  2
1__DPOINTS
 70
0
 62
7
  6
CONTINUOUS
370
-3
390
F
  0
LAYER
  5
202
100
AcDbSymbolTableRecord
100
AcDbLayerTableRecord
  2
3__DETAIL
 70
0
 62
7
  6
CONTINUOUS
370
-3
390
F
  0
LAYER
  5
203
100
AcDbSymbolTableRecord
100
AcDbLayerTableRecord
  2
3__DIM
 70
0
 62
7
  6
CONTINUOUS
370
-3
390
F
  0
LAYER
  5
204
100
AcDbSymbolTableRecord
100
AcDbLayerTableRecord
  2
3__NOTES
 70
0
 62
7
  6
CONTINUOUS
370
-3
390
F
  0
LAYER
  5
205
100
AcDbSymbolTableRecord
100
AcDbLayerTableRecord
  2
ANNOTATION
 70
0
 62
7
  6
CONTINUOUS
370
-3
390
F
  0
LAYER
  5
206
100
AcDbSymbolTableRecord
100
AcDbLayerTableRecord
  2
SURF_FINISH
 70
0
 62
7
  6
CONTINUOUS
370
-3
390
F
  0
LAYER
  5
207
100
AcDbSymbolTableRecord
100
AcDbLayerTableRecord
  2
TT
 70
0
 62
7
  6
CONTINUOUS
370
-3
390
F
  0
ENDTAB
  0
TABLE
  2
STYLE
  5
3
100
AcDbSymbolTable
 70
1
  0
STYLE
  5
11
100
AcDbSymbolTableRecord
100
AcDbTextStyleTableRecord
  2
STANDARD
 70
0
 40
0.0
 41
0.8
 50
0.0
 71
0
 42
0.2
  3
txt
  4

  0
STYLE
  5
208
100
AcDbSymbolTableRecord
100
AcDbTextStyleTableRecord
  2
TEXTSTYLE_1
 70
0
 40
0.0
 41
0.8
 50
0.0
 71
0
 42
0.2
  3
gdt
  4

  0
ENDTAB
  0
TABLE
  2
VIEW
  5
6
100
AcDbSymbolTable
 70
0
  0
ENDTAB
  0
TABLE
  2
UCS
  5
7
100
AcDbSymbolTable
 70
0
  0
ENDTAB
  0
TABLE
  2
APPID
  5
9
100
AcDbSymbolTable
 70
1
  0
APPID
  5
209
100
AcDbSymbolTableRecord
100
AcDbRegAppTableRecord
  2
ACAD
 70
0
  0
ENDTAB
  0
TABLE
  2
BLOCK_RECORD
  5
1
100
AcDbSymbolTable
 70
0
  0
BLOCK_RECORD
  5
20A
100
AcDbSymbolTableRecord
100
AcDbBlockTableRecord
  2
*Model_Space
  0
BLOCK_RECORD
  5
20B
100
AcDbSymbolTableRecord
100
AcDbBlockTableRecord
  2
*Paper_Space
  0
ENDTAB
  0
TABLE
  2
DIMSTYLE
  5
A
100
AcDbSymbolTable
 70
1
100
AcDbDimStyleTable
 71
0
  0
DIMSTYLE
105
20C
100
AcDbSymbolTableRecord
100
AcDbDimStyleTableRecord
  2
STANDARD
 70
0
  3

  4

 40
1.0
 41
3.0
 42
0.0
 43
0.38
 44
1.5
 45
0.0
 46
0.0
 47
0.05
 48
0.05
140
3.5
141
0.09
142
0.0
143
25.4
144
1.0
145
0.0
146
1.0
147
0.625
 71
1.0
 72
0.0
 73
0
 74
0
 75
0
 76
0
 77
1
 78
8
 79
2
170
0
171
2
172
0
173
0
174
0
175
0
176
0
177
0
178
0
270
2
179
3
271
3
272
3
273
2
274
2
275
0
280
0
281
0
282
0
283
1
284
8
285
0
286
0
287
3
288
0
340
11
278
44
  0
ENDTAB
  0
ENDSEC
  0
SECTION
  2
BLOCKS
  0
BLOCK
  5
20
100
AcDbEntity
  8
0
100
AcDbBlockBegin
  2
*Model_Space
 70
0
 10
0.0
 20
0.0
 30
0.0
  3
*Model_Space
  1

  0
ENDBLK
  5
21
100
AcDbEntity
  8
0
100
AcDbBlockEnd
  0
BLOCK
  5
1C
100
AcDbEntity
  8
0
100
AcDbBlockBegin
  2
*Paper_Space
 70
0
 10
0.0
 20
0.0
 30
0.0
  3
*Paper_Space
  1

  0
ENDBLK
  5
1D
100
AcDbEntity
  8
0
100
AcDbBlockEnd
  0
ENDSEC
  0
SECTION
  2
ENTITIES
  0
HATCH
  5
20D
100
AcDbEntity
  8
0
100
AcDbHatch
 62
2
  6
CONTINUOUS
 10
0.0
 20
0.0
 30
0.0
210
0.0
220
0.0
230
1.0
  2
XSEC0001
 70
1
 71
0
 91
3
 92
1
 93
40
 72
2
 10
101.8788905317
 20
142.3458166775
 40
39.5
 50
59.573188356
 51
77.9304679211
 73
1
 72
2
 10
111.0051576622
 20
179.7485070655
 40
1.5
 50
125.3040583535
 51
173.0
 73
1
 72
1
 10
109.487564036
 20
179.6969624096
 11
109.5163384347
 21
179.9313110806
 72
2
 10
106.5099255811
 20
180.0625704399
 40
3.0
 50
300.3976219664
 51
353.0
 73
1
 72
1
 10
103.3968844281
 20
174.758212664
 11
108.0279194775
 21
177.4749664264
 72
2
 10
101.8788905317
 20
177.3458166775
 40
3.0
 50
180.0
 51
300.3976219664
 73
1
 72
1
 10
98.8788905317
 20
180.5819252661
 11
98.8788905317
 21
177.3458166775
 72
2
 10
97.3788905317
 20
180.5819252661
 40
1.5
 50
0.0
 51
47.6959416465
 73
1
 72
2
 10
101.8788905317
 20
142.3458166775
 40
39.5
 50
95.0695320789
 51
120.426811644
 73
1
 72
2
 10
83.3407423297
 20
176.0887724052
 40
1.5
 50
167.8004020764
 51
198.7062168343
 73
1
 72
2
 10
80.9728036189
 20
175.2869829926
 40
1.0
 50
304.0
 51
18.7062168343
 73
1
 72
1
 10
81.5319965224
 20
174.4579454201
 11
79.7271238772
 21
173.2405434491
 72
2
 10
79.1679309737
 20
174.0695810216
 40
1.0
 50
229.2937831657
 51
304.0
 73
1
 72
2
 10
77.5374793218
 20
172.1744220809
 40
1.5
 50
49.2937831657
 51
80.1995979236
 73
1
 72
2
 10
101.8788905317
 20
142.3458166775
 40
39.5
 50
127.573188356
 51
167.5733330045
 73
1
 72
1
 10
63.3042874877
 20
150.8458166775
 11
64.7924478693
 21
150.8458166775
 72
1
 10
64.7924478693
 20
150.8458166775
 11
64.7924478693
 21
149.8458166775
 72
1
 10
64.7924478693
 20
149.8458166775
 11
61.5707027779
 21
149.8458166775
 72
2
 10
101.8788905317
 20
142.3458166775
 40
41.0
 50
125.3975966282
 51
169.4597140348
 73
1
 72
1
 10
79.2413297238
 20
174.1190891037
 11
78.129764357
 21
175.7670525304
 72
1
 10
80.8994048689
 20
175.2374749106
 11
79.2413297238
 21
174.1190891037
 72
1
 10
79.7878395021
 20
176.8854383374
 11
80.8994048689
 21
175.2374749106
 72
2
 10
101.8788905317
 20
142.3458166775
 40
41.0
 50
92.4462947381
 51
122.6024033718
 73
1
 72
1
 10
100.1288905317
 20
183.3084520908
 11
100.1288905317
 21
177.3458166775
 72
2
 10
101.8788905317
 20
177.3458166775
 40
1.75
 50
180.0
 51
360.0
 73
1
 72
1
 10
103.6288905317
 20
177.3458166775
 11
103.6288905317
 21
183.3084520908
 72
2
 10
101.8788905317
 20
142.3458166775
 40
41.0
 50
57.3975966282
 51
87.5537052619
 73
1
 72
1
 10
122.8583761945
 20
175.2374749106
 11
123.9699415613
 21
176.8854383374
 72
1
 10
124.5164513396
 20
174.1190891037
 11
122.8583761945
 21
175.2374749106
 72
1
 10
125.6280167064
 20
175.7670525304
 11
124.5164513396
 21
174.1190891037
 72
2
 10
101.8788905317
 20
142.3458166775
 40
41.0
 50
49.8970632077
 51
54.6024033718
 73
1
 72
1
 10
127.224872284
 20
172.6415458981
 11
128.2895668183
 21
173.7062404324
 72
2
 10
101.8788905317
 20
142.3458166775
 40
39.5
 50
50.0835081099
 51
52.426811644
 73
1
 72
2
 10
126.2203017416
 20
172.1744220809
 40
1.5
 50
99.8004020764
 51
130.7062168343
 73
1
 72
2
 10
124.5898500897
 20
174.0695810216
 40
1.0
 50
236.0
 51
310.7062168343
 73
1
 72
1
 10
124.0306571862
 20
173.2405434491
 11
122.225784541
 21
174.4579454201
 72
2
 10
122.7849774445
 20
175.2869829926
 40
1.0
 50
161.2937831657
 51
236.0
 73
1
 72
2
 10
120.4170387337
 20
176.0887724052
 40
1.5
 50
341.2937831657
 51
12.1995979236
 73
1
 72
2
 10
106.5099255811
 20
180.0625704399
 40
1.25
 50
90.0
 51
270.0
 73
1
 72
2
 10
106.5099255811
 20
180.0625704399
 40
1.25
 50
270.0
 51
90.0
 73
1
 97
0
 92
1
 93
34
 72
2
 10
101.8788905317
 20
142.3458166775
 40
39.5
 50
335.0695320789
 51
39.9164918901
 73
1
 72
1
 10
133.2393142866
 20
168.7564929641
 11
132.1746197523
 21
167.6917984298
 72
2
 10
101.8788905317
 20
142.3458166775
 40
41.0
 50
332.4462947381
 51
40.1029367923
 73
1
 72
1
 10
138.2285734056
 20
123.3800434275
 11
135.6628558755
 21
124.8613611341
 72
2
 10
134.7878558755
 20
123.3458166775
 40
1.75
 50
60.0
 51
240.0
 73
1
 72
1
 10
133.9128558755
 20
121.8302722209
 11
136.4785734056
 21
120.3489545142
 72
2
 10
101.8788905317
 20
142.3458166775
 40
41.0
 50
212.4462947381
 51
327.5537052619
 73
1
 72
1
 10
67.2792076579
 20
120.3489545142
 11
69.8449251879
 21
121.8302722209
 72
2
 10
68.9699251879
 20
123.3458166775
 40
1.75
 50
300.0
 51
120.0
 73
1
 72
1
 10
68.0949251879
 20
124.8613611341
 11
65.5292076579
 21
123.3800434275
 72
2
 10
101.8788905317
 20
142.3458166775
 40
41.0
 50
190.5402859652
 51
207.5537052619
 73
1
 72
1
 10
61.5707027779
 20
134.8458166775
 11
64.7924478693
 21
134.8458166775
 72
1
 10
64.7924478693
 20
134.8458166775
 11
64.7924478693
 21
133.8458166775
 72
1
 10
64.7924478693
 20
133.8458166775
 11
63.3042874877
 21
133.8458166775
 72
2
 10
101.8788905317
 20
142.3458166775
 40
39.5
 50
192.4266669955
 51
204.9304679211
 73
1
 72
2
 10
66.5154491521
 20
127.1248767002
 40
1.5
 50
252.3040583535
 51
300.0
 73
1
 72
1
 10
67.4699251879
 20
125.9438928888
 11
67.2654491521
 21
125.8258385945
 72
2
 10
68.9699251879
 20
123.3458166775
 40
3.0
 50
33.5
 51
120.0
 73
1
 72
1
 10
74.0323986161
 20
121.1326567536
 11
71.4715826541
 21
125.0016276334
 72
2
 10
71.5307411499
 20
119.4768457977
 40
3.0
 50
307.0
 51
33.5
 73
1
 72
1
 10
73.1476215163
 20
116.9388455718
 11
73.3361862194
 21
117.0809392676
 72
2
 10
74.050344051
 20
115.7408923068
 40
1.5
 50
127.0
 51
174.6959416465
 73
1
 72
2
 10
101.8788905317
 20
142.3458166775
 40
39.5
 50
222.0695320789
 51
317.9304679211
 73
1
 72
2
 10
129.7074370124
 20
115.7408923068
 40
1.5
 50
5.3040583535
 51
53.0
 73
1
 72
1
 10
130.421594844
 20
117.0809392676
 11
130.6101595471
 21
116.9388455718
 72
2
 10
132.2270399135
 20
119.4768457977
 40
3.0
 50
146.5
 51
233.0
 73
1
 72
1
 10
132.2861984093
 20
125.0016276334
 11
129.7253824473
 21
121.1326567536
 72
2
 10
134.7878558755
 20
123.3458166775
 40
3.0
 50
60.0
 51
146.5
 73
1
 72
1
 10
136.4923319113
 20
125.8258385945
 11
136.2878558755
 21
125.9438928888
 72
2
 10
137.2423319113
 20
127.1248767002
 40
1.5
 50
240.0
 51
287.6959416465
 73
1
 72
2
 10
71.5307411499
 20
119.4768457977
 40
1.25
 50
90.0
 51
270.0
 73
1
 72
2
 10
71.5307411499
 20
119.4768457977
 40
1.25
 50
270.0
 51
90.0
 73
1
 72
2
 10
132.2270399135
 20
119.4768457977
 40
1.25
 50
90.0
 51
270.0
 73
1
 72
2
 10
132.2270399135
 20
119.4768457977
 40
1.25
 50
270.0
 51
90.0
 73
1
 97
0
 92
1
 93
4
 72
2
 10
101.8788905317
 20
142.3458166775
 40
4.5
 50
180.0
 51
360.0
 73
1
 72
2
 10
101.8788905317
 20
142.3458166775
 40
4.5
 50
0.0
 51
180.0
 73
1
 72
2
 10
101.8788905317
 20
142.3458166775
 40
2.25
 50
180.0
 51
360.0
 73
1
 72
2
 10
101.8788905317
 20
142.3458166775
 40
2.25
 50
0.0
 51
180.0
 73
1
 97
0
 75
0
 76
1
 98
1
 10
0.0
 20
0.0
  0
LINE
  5
20E
100
AcDbEntity
  8
0
100
AcDbLine
 62
7
  6
CONTINUOUS
 10
0.0
 20
0.0
 11
210.0
 21
0.0
  0
LINE
  5
20F
100
AcDbEntity
  8
0
100
AcDbLine
 62
7
  6
CONTINUOUS
 10
0.0
 20
0.0
 11
0.0
 21
297.0
  0
LINE
  5
210
100
AcDbEntity
  8
0
100
AcDbLine
 62
7
  6
CONTINUOUS
 10
210.0
 20
0.0
 11
210.0
 21
297.0
  0
LINE
  5
211
100
AcDbEntity
  8
0
100
AcDbLine
 62
7
  6
CONTINUOUS
 10
0.0
 20
297.0
 11
210.0
 21
297.0
  0
LINE
  5
212
100
AcDbEntity
  8
0
100
AcDbLine
 62
7
  6
CONTINUOUS
 10
80.8994048689
 20
175.2374749106
 11
79.2413297238
 21
174.1190891037
  0
LINE
  5
213
100
AcDbEntity
  8
0
100
AcDbLine
 62
7
  6
CONTINUOUS
 10
64.7924478693
 20
150.8458166775
 11
64.7924478693
 21
149.8458166775
  0
LINE
  5
214
100
AcDbEntity
  8
0
100
AcDbLine
 62
7
  6
CONTINUOUS
 10
64.7924478693
 20
134.8458166775
 11
64.7924478693
 21
133.8458166775
  0
LINE
  5
215
100
AcDbEntity
  8
0
100
AcDbLine
 62
7
  6
CONTINUOUS
 10
81.5319965224
 20
174.4579454201
 11
79.7271238772
 21
173.2405434491
  0
LINE
  5
216
100
AcDbEntity
  8
0
100
AcDbLine
 62
7
  6
CONTINUOUS
 10
74.0323986161
 20
121.1326567536
 11
71.4715826541
 21
125.0016276334
  0
LINE
  5
217
100
AcDbEntity
  8
0
100
AcDbLine
 62
7
  6
CONTINUOUS
 10
103.3968844281
 20
174.758212664
 11
108.0279194775
 21
177.4749664264
  0
LINE
  5
218
100
AcDbEntity
  8
0
100
AcDbLine
 62
7
  6
CONTINUOUS
 10
64.7924478693
 20
133.8458166775
 11
63.3042874877
 21
133.8458166775
  0
LINE
  5
219
100
AcDbEntity
  8
0
100
AcDbLine
 62
7
  6
CONTINUOUS
 10
61.5707027779
 20
134.8458166775
 11
64.7924478693
 21
134.8458166775
  0
LINE
  5
21A
100
AcDbEntity
  8
0
100
AcDbLine
 62
7
  6
CONTINUOUS
 10
127.224872284
 20
172.6415458981
 11
128.2895668183
 21
173.7062404324
  0
LINE
  5
21B
100
AcDbEntity
  8
0
100
AcDbLine
 62
7
  6
CONTINUOUS
 10
98.8788905317
 20
180.5819252661
 11
98.8788905317
 21
177.3458166775
  0
LINE
  5
21C
100
AcDbEntity
  8
0
100
AcDbLine
 62
7
  6
CONTINUOUS
 10
100.1288905317
 20
183.3084520908
 11
100.1288905317
 21
177.3458166775
  0
LINE
  5
21D
100
AcDbEntity
  8
0
100
AcDbLine
 62
7
  6
CONTINUOUS
 10
122.8583761945
 20
175.2374749106
 11
123.9699415613
 21
176.8854383374
  0
LINE
  5
21E
100
AcDbEntity
  8
0
100
AcDbLine
 62
7
  6
CONTINUOUS
 10
67.4699251879
 20
125.9438928888
 11
67.2654491521
 21
125.8258385945
  0
LINE
  5
21F
100
AcDbEntity
  8
0
100
AcDbLine
 62
7
  6
CONTINUOUS
 10
68.0949251879
 20
124.8613611341
 11
65.5292076579
 21
123.3800434275
  0
LINE
  5
220
100
AcDbEntity
  8
0
100
AcDbLine
 62
7
  6
CONTINUOUS
 10
133.9128558755
 20
121.8302722209
 11
136.4785734056
 21
120.3489545142
  0
LINE
  5
221
100
AcDbEntity
  8
0
100
AcDbLine
 62
7
  6
CONTINUOUS
 10
130.421594844
 20
117.0809392676
 11
130.6101595471
 21
116.9388455718
  0
LINE
  5
222
100
AcDbEntity
  8
0
100
AcDbLine
 62
7
  6
CONTINUOUS
 10
79.2413297238
 20
174.1190891037
 11
78.129764357
 21
175.7670525304
  0
LINE
  5
223
100
AcDbEntity
  8
0
100
AcDbLine
 62
7
  6
CONTINUOUS
 10
103.6288905317
 20
177.3458166775
 11
103.6288905317
 21
183.3084520908
  0
LINE
  5
224
100
AcDbEntity
  8
0
100
AcDbLine
 62
7
  6
CONTINUOUS
 10
109.487564036
 20
179.6969624096
 11
109.5163384347
 21
179.9313110806
  0
LINE
  5
225
100
AcDbEntity
  8
0
100
AcDbLine
 62
7
  6
CONTINUOUS
 10
125.6280167064
 20
175.7670525304
 11
124.5164513396
 21
174.1190891037
  0
LINE
  5
226
100
AcDbEntity
  8
0
100
AcDbLine
 62
7
  6
CONTINUOUS
 10
133.2393142866
 20
168.7564929641
 11
132.1746197523
 21
167.6917984298
  0
LINE
  5
227
100
AcDbEntity
  8
0
100
AcDbLine
 62
7
  6
CONTINUOUS
 10
73.1476215163
 20
116.9388455718
 11
73.3361862194
 21
117.0809392676
  0
LINE
  5
228
100
AcDbEntity
  8
0
100
AcDbLine
 62
7
  6
CONTINUOUS
 10
67.2792076579
 20
120.3489545142
 11
69.8449251879
 21
121.8302722209
  0
LINE
  5
229
100
AcDbEntity
  8
0
100
AcDbLine
 62
7
  6
CONTINUOUS
 10
138.2285734056
 20
123.3800434275
 11
135.6628558755
 21
124.8613611341
  0
LINE
  5
22A
100
AcDbEntity
  8
0
100
AcDbLine
 62
7
  6
CONTINUOUS
 10
136.4923319113
 20
125.8258385945
 11
136.2878558755
 21
125.9438928888
  0
LINE
  5
22B
100
AcDbEntity
  8
0
100
AcDbLine
 62
7
  6
CONTINUOUS
 10
79.7878395021
 20
176.8854383374
 11
80.8994048689
 21
175.2374749106
  0
LINE
  5
22C
100
AcDbEntity
  8
0
100
AcDbLine
 62
7
  6
CONTINUOUS
 10
64.7924478693
 20
149.8458166775
 11
61.5707027779
 21
149.8458166775
  0
LINE
  5
22D
100
AcDbEntity
  8
0
100
AcDbLine
 62
7
  6
CONTINUOUS
 10
63.3042874877
 20
150.8458166775
 11
64.7924478693
 21
150.8458166775
  0
LINE
  5
22E
100
AcDbEntity
  8
0
100
AcDbLine
 62
7
  6
CONTINUOUS
 10
132.2861984093
 20
125.0016276334
 11
129.7253824473
 21
121.1326567536
  0
LINE
  5
22F
100
AcDbEntity
  8
0
100
AcDbLine
 62
7
  6
CONTINUOUS
 10
124.0306571862
 20
173.2405434491
 11
122.225784541
 21
174.4579454201
  0
LINE
  5
230
100
AcDbEntity
  8
0
100
AcDbLine
 62
7
  6
CONTINUOUS
 10
124.5164513396
 20
174.1190891037
 11
122.8583761945
 21
175.2374749106
  0
ARC
  5
231
100
AcDbEntity
  8
0
100
AcDbCircle
 62
7
  6
CONTINUOUS
 10
68.9699251879
 20
123.3458166775
 40
3.0
100
AcDbArc
 50
33.5
 51
120.0
  0
ARC
  5
232
100
AcDbEntity
  8
0
100
AcDbCircle
 62
7
  6
CONTINUOUS
 10
71.5307411499
 20
119.4768457977
 40
3.0
100
AcDbArc
 50
307.0
 51
33.5
  0
ARC
  5
233
100
AcDbEntity
  8
0
100
AcDbCircle
 62
7
  6
CONTINUOUS
 10
68.9699251879
 20
123.3458166775
 40
1.75
100
AcDbArc
 50
300.0
 51
120.0
  0
ARC
  5
234
100
AcDbEntity
  8
0
100
AcDbCircle
 62
7
  6
CONTINUOUS
 10
74.050344051
 20
115.7408923068
 40
1.5
100
AcDbArc
 50
127.0
 51
174.6959416465
  0
ARC
  5
235
100
AcDbEntity
  8
0
100
AcDbCircle
 62
7
  6
CONTINUOUS
 10
66.5154491521
 20
127.1248767002
 40
1.5
100
AcDbArc
 50
252.3040583535
 51
300.0
  0
CIRCLE
  5
236
100
AcDbEntity
  8
0
100
AcDbCircle
 62
7
  6
CONTINUOUS
 10
71.5307411499
 20
119.4768457977
 40
1.25
  0
ARC
  5
237
100
AcDbEntity
  8
0
100
AcDbCircle
 62
7
  6
CONTINUOUS
 10
97.3788905317
 20
180.5819252661
 40
1.5
100
AcDbArc
 50
0.0
 51
47.6959416465
  0
ARC
  5
238
100
AcDbEntity
  8
0
100
AcDbCircle
 62
7
  6
CONTINUOUS
 10
83.3407423297
 20
176.0887724052
 40
1.5
100
AcDbArc
 50
167.8004020764
 51
198.7062168343
  0
ARC
  5
239
100
AcDbEntity
  8
0
100
AcDbCircle
 62
7
  6
CONTINUOUS
 10
77.5374793218
 20
172.1744220809
 40
1.5
100
AcDbArc
 50
49.2937831657
 51
80.1995979236
  0
ARC
  5
23A
100
AcDbEntity
  8
0
100
AcDbCircle
 62
7
  6
CONTINUOUS
 10
79.1679309737
 20
174.0695810216
 40
1.0
100
AcDbArc
 50
229.2937831657
 51
304.0
  0
ARC
  5
23B
100
AcDbEntity
  8
0
100
AcDbCircle
 62
7
  6
CONTINUOUS
 10
80.9728036189
 20
175.2869829926
 40
1.0
100
AcDbArc
 50
304.0
 51
18.7062168343
  0
ARC
  5
23C
100
AcDbEntity
  8
0
100
AcDbCircle
 62
7
  6
CONTINUOUS
 10
101.8788905317
 20
142.3458166775
 40
41.0
100
AcDbArc
 50
57.3975966282
 51
87.5537052619
  0
ARC
  5
23D
100
AcDbEntity
  8
0
100
AcDbCircle
 62
7
  6
CONTINUOUS
 10
101.8788905317
 20
142.3458166775
 40
41.0
100
AcDbArc
 50
49.8970632077
 51
54.6024033718
  0
ARC
  5
23E
100
AcDbEntity
  8
0
100
AcDbCircle
 62
7
  6
CONTINUOUS
 10
101.8788905317
 20
142.3458166775
 40
41.0
100
AcDbArc
 50
332.4462947381
 51
40.1029367923
  0
ARC
  5
23F
100
AcDbEntity
  8
0
100
AcDbCircle
 62
7
  6
CONTINUOUS
 10
101.8788905317
 20
142.3458166775
 40
41.0
100
AcDbArc
 50
212.4462947381
 51
327.5537052619
  0
ARC
  5
240
100
AcDbEntity
  8
0
100
AcDbCircle
 62
7
  6
CONTINUOUS
 10
101.8788905317
 20
142.3458166775
 40
41.0
100
AcDbArc
 50
190.5402859652
 51
207.5537052619
  0
ARC
  5
241
100
AcDbEntity
  8
0
100
AcDbCircle
 62
7
  6
CONTINUOUS
 10
101.8788905317
 20
142.3458166775
 40
41.0
100
AcDbArc
 50
125.3975966282
 51
169.4597140348
  0
ARC
  5
242
100
AcDbEntity
  8
0
100
AcDbCircle
 62
7
  6
CONTINUOUS
 10
101.8788905317
 20
142.3458166775
 40
41.0
100
AcDbArc
 50
92.4462947381
 51
122.6024033718
  0
ARC
  5
243
100
AcDbEntity
  8
0
100
AcDbCircle
 62
7
  6
CONTINUOUS
 10
101.8788905317
 20
142.3458166775
 40
39.5
100
AcDbArc
 50
59.573188356
 51
77.9304679211
  0
ARC
  5
244
100
AcDbEntity
  8
0
100
AcDbCircle
 62
7
  6
CONTINUOUS
 10
101.8788905317
 20
142.3458166775
 40
39.5
100
AcDbArc
 50
50.0835081099
 51
52.426811644
  0
ARC
  5
245
100
AcDbEntity
  8
0
100
AcDbCircle
 62
7
  6
CONTINUOUS
 10
101.8788905317
 20
142.3458166775
 40
39.5
100
AcDbArc
 50
335.0695320789
 51
39.9164918901
  0
ARC
  5
246
100
AcDbEntity
  8
0
100
AcDbCircle
 62
7
  6
CONTINUOUS
 10
101.8788905317
 20
142.3458166775
 40
39.5
100
AcDbArc
 50
222.0695320789
 51
317.9304679211
  0
ARC
  5
247
100
AcDbEntity
  8
0
100
AcDbCircle
 62
7
  6
CONTINUOUS
 10
101.8788905317
 20
142.3458166775
 40
39.5
100
AcDbArc
 50
192.4266669955
 51
204.9304679211
  0
ARC
  5
248
100
AcDbEntity
  8
0
100
AcDbCircle
 62
7
  6
CONTINUOUS
 10
101.8788905317
 20
142.3458166775
 40
39.5
100
AcDbArc
 50
127.573188356
 51
167.5733330045
  0
ARC
  5
249
100
AcDbEntity
  8
0
100
AcDbCircle
 62
7
  6
CONTINUOUS
 10
101.8788905317
 20
142.3458166775
 40
39.5
100
AcDbArc
 50
95.0695320789
 51
120.426811644
  0
CIRCLE
  5
24A
100
AcDbEntity
  8
0
100
AcDbCircle
 62
7
  6
CONTINUOUS
 10
101.8788905317
 20
142.3458166775
 40
4.5
  0
ARC
  5
24B
100
AcDbEntity
  8
0
100
AcDbCircle
 62
7
  6
CONTINUOUS
 10
132.2270399135
 20
119.4768457977
 40
3.0
100
AcDbArc
 50
146.5
 51
233.0
  0
ARC
  5
24C
100
AcDbEntity
  8
0
100
AcDbCircle
 62
7
  6
CONTINUOUS
 10
134.7878558755
 20
123.3458166775
 40
3.0
100
AcDbArc
 50
60.0
 51
146.5
  0
CIRCLE
  5
24D
100
AcDbEntity
  8
0
100
AcDbCircle
 62
7
  6
CONTINUOUS
 10
101.8788905317
 20
142.3458166775
 40
2.25
  0
ARC
  5
24E
100
AcDbEntity
  8
0
100
AcDbCircle
 62
7
  6
CONTINUOUS
 10
134.7878558755
 20
123.3458166775
 40
1.75
100
AcDbArc
 50
60.0
 51
240.0
  0
ARC
  5
24F
100
AcDbEntity
  8
0
100
AcDbCircle
 62
7
  6
CONTINUOUS
 10
137.2423319113
 20
127.1248767002
 40
1.5
100
AcDbArc
 50
240.0
 51
287.6959416465
  0
ARC
  5
250
100
AcDbEntity
  8
0
100
AcDbCircle
 62
7
  6
CONTINUOUS
 10
129.7074370124
 20
115.7408923068
 40
1.5
100
AcDbArc
 50
5.3040583535
 51
53.0
  0
CIRCLE
  5
251
100
AcDbEntity
  8
0
100
AcDbCircle
 62
7
  6
CONTINUOUS
 10
132.2270399135
 20
119.4768457977
 40
1.25
  0
ARC
  5
252
100
AcDbEntity
  8
0
100
AcDbCircle
 62
7
  6
CONTINUOUS
 10
106.5099255811
 20
180.0625704399
 40
3.0
100
AcDbArc
 50
300.3976219664
 51
353.0
  0
ARC
  5
253
100
AcDbEntity
  8
0
100
AcDbCircle
 62
7
  6
CONTINUOUS
 10
101.8788905317
 20
177.3458166775
 40
3.0
100
AcDbArc
 50
180.0
 51
300.3976219664
  0
ARC
  5
254
100
AcDbEntity
  8
0
100
AcDbCircle
 62
7
  6
CONTINUOUS
 10
101.8788905317
 20
177.3458166775
 40
1.75
100
AcDbArc
 50
180.0
 51
360.0
  0
ARC
  5
255
100
AcDbEntity
  8
0
100
AcDbCircle
 62
7
  6
CONTINUOUS
 10
111.0051576622
 20
179.7485070655
 40
1.5
100
AcDbArc
 50
125.3040583535
 51
173.0
  0
ARC
  5
256
100
AcDbEntity
  8
0
100
AcDbCircle
 62
7
  6
CONTINUOUS
 10
126.2203017416
 20
172.1744220809
 40
1.5
100
AcDbArc
 50
99.8004020764
 51
130.7062168343
  0
ARC
  5
257
100
AcDbEntity
  8
0
100
AcDbCircle
 62
7
  6
CONTINUOUS
 10
120.4170387337
 20
176.0887724052
 40
1.5
100
AcDbArc
 50
341.2937831657
 51
12.1995979236
  0
CIRCLE
  5
258
100
AcDbEntity
  8
0
100
AcDbCircle
 62
7
  6
CONTINUOUS
 10
106.5099255811
 20
180.0625704399
 40
1.25
  0
ARC
  5
259
100
AcDbEntity
  8
0
100
AcDbCircle
 62
7
  6
CONTINUOUS
 10
122.7849774445
 20
175.2869829926
 40
1.0
100
AcDbArc
 50
161.2937831657
 51
236.0
  0
ARC
  5
25A
100
AcDbEntity
  8
0
100
AcDbCircle
 62
7
  6
CONTINUOUS
 10
124.5898500897
 20
174.0695810216
 40
1.0
100
AcDbArc
 50
236.0
 51
310.7062168343
  0
ENDSEC
  0
SECTION
  2
OBJECTS
  0
DICTIONARY
  5
C
100
AcDbDictionary
280
0
281
1
  3
ACAD_GROUP
350
D
  3
ACAD_MLINESTYLE
350
17
  3
ACAD_LAYOUT
350
1A
  3
ACAD_PLOTSETTINGS
350
19
  3
ACAD_PLOTSTYLENAME
350
E
  0
DICTIONARY
  5
D
102
{ACAD_REACTORS
330
C
102
}
100
AcDbDictionary
280
0
281
1
  0
ACDBDICTIONARYWDFLT
  5
E
102
{ACAD_REACTORS
330
C
102
}
100
AcDbDictionary
281
1
  3
Normal
350
F
100
AcDbDictionaryWithDefault
340
F
  0
DICTIONARY
  5
17
102
{ACAD_REACTORS
330
C
102
}
100
AcDbDictionary
280
0
281
1
  3
Standard
350
18
  0
DICTIONARY
  5
19
102
{ACAD_REACTORS
330
C
102
}
100
AcDbDictionary
281
1
  0
DICTIONARY
  5
1A
102
{ACAD_REACTORS
330
C
102
}
100
AcDbDictionary
281
1
  3
Model
350
25B
  3
Layout1
350
25C
  0
ACDBPLACEHOLDER
  5
F
102
{ACAD_REACTORS
330
E
102
}
  0
MLINESTYLE
  5
18
102
{ACAD_REACTORS
330
17
102
}
100
AcDbMlineStyle
  2
STANDARD
 70
0
  3

 62
256
 51
90.0
 52
90.0
 71
2
 49
0.5
 62
256
  6
BYLAYER
 49
-0.5
 62
256
  6
BYLAYER
  0
LAYOUT
  5
25B
102
{ACAD_REACTORS
330
1A
102
}
100
AcDbPlotSettings
  1

  2
none_device
  4

  6

 40
0.0
 41
0.0
 42
0.0
 43
0.0
 44
210.0
 45
297.0
 46
0.0
 47
0.0
 48
0.0
 49
0.0
140
0.0
141
0.0
142
1.0
143
1.0
 70
1024
 72
1
 73
0
 74
0
  7

 75
0
147
1.0
148
0.0
149
0.0
100
AcDbLayout
  1
Model
 70
0
 71
0
 10
0.0
 20
0.0
 11
210.0
 21
297.0
 12
0.0
 22
0.0
 32
0.0
 14
0.0
 24
0.0
 34
0.0
 15
0.0
 25
0.0
 35
0.0
146
0.0
 13
0.0
 23
0.0
 33
0.0
 16
1.0
 26
0.0
 36
0.0
 17
0.0
 27
1.0
 37
0.0
 76
0
330
20A
345
0
346
0
  0
LAYOUT
  5
25C
102
{ACAD_REACTORS
330
1A
102
}
100
AcDbPlotSettings
  1

  2
none_device
  4

  6

 40
0.0
 41
0.0
 42
0.0
 43
0.0
 44
210.0
 45
297.0
 46
0.0
 47
0.0
 48
0.0
 49
0.0
140
0.0
141
0.0
142
1.0
143
1.0
 70
0
 72
1
 73
0
 74
0
  7

 75
0
147
1.0
148
0.0
149
0.0
100
AcDbLayout
  1
Layout1
 70
0
 71
1
 10
0.0
 20
0.0
 11
210.0
 21
297.0
 12
0.0
 22
0.0
 32
0.0
 14
0.0
 24
0.0
 34
0.0
 15
0.0
 25
0.0
 35
0.0
146
0.0
 13
0.0
 23
0.0
 33
0.0
 16
1.0
 26
0.0
 36
0.0
 17
0.0
 27
1.0
 37
0.0
 76
0
330
20B
345
0
346
0
  0
ENDSEC
  0
EOF
